<svg xmlns="http://www.w3.org/2000/svg" viewBox="0 0 100 125" fill="none" x="0px" y="0px"><path fill-rule="evenodd" clip-rule="evenodd" d="M65.4998 3C64.3038 3 63.3338 4.13974 63.3338 5.54545V23.3636C63.3338 24.7694 64.3038 25.9091 65.4998 25.9091H91.5002C92.6962 25.9091 93.6662 24.7694 93.6662 23.3636V5.54545C93.6662 4.13974 92.6962 3 91.5002 3H65.4998ZM83.8621 22.2104C84.0992 22.9521 84.88 23.8644 86.0324 23.8728H91.8356V5.03633H65.1644V23.8728H70.967C72.1212 23.8641 73.0119 22.8997 73.2669 22.1325C74.1914 19.3517 75.673 18.2396 77.4717 17.9376C76.4176 17.522 75.6712 16.4868 75.6712 15.2753C75.6712 13.6975 76.9379 12.4182 78.5 12.4182C80.0621 12.4182 81.3288 13.6975 81.3288 15.2753C81.3288 16.4634 80.6107 17.4821 79.5891 17.9131C81.4652 18.1904 82.9548 19.3784 83.8621 22.2104ZM59.4791 29.2186L64.7522 27.1818H92.2478L97.4318 29.1736C97.7672 29.3224 98 29.6569 98 30.0455C98 30.5726 97.5706 31 97.0417 31H86V48.2C86 50.6853 83.9853 52.7 81.5 52.7H79V59C79 61.4853 76.9853 63.5 74.5 63.5H70.9663C70.7467 65.0512 69.4796 66.2656 67.9038 66.4043L66.8508 71.318C67.2962 71.5412 67.6019 72.0019 67.6019 72.534C67.6019 73.2847 66.9934 73.8932 66.2427 73.8932C66.0724 73.8932 65.9093 73.8619 65.7591 73.8046L61.0166 80.5H73V73.7502C73.2173 73.306 73.6943 73 74.2437 73H96.6318C97.3828 73 98 73.5726 98 74.2885V87.7115C98 88.4274 97.3828 89 96.6318 89H86V91C86 93.4853 83.9853 95.5 81.5 95.5H37.6271C37.3908 96.3645 36.5997 97 35.6602 97C34.5403 97 33.6313 96.0971 33.6214 94.9795L18.9308 90.0826C18.5582 90.5695 17.9711 90.8835 17.3107 90.8835C16.1847 90.8835 15.2718 89.9707 15.2718 88.8447C15.2718 88.3784 15.4283 87.9487 15.6917 87.6053L7.52469 76.796C7.00974 77.1102 6.40465 77.2913 5.75728 77.2913C3.88059 77.2913 2.35922 75.7699 2.35922 73.8932C2.35922 72.4201 3.2966 71.1659 4.60741 70.6946L3.19681 65.0522C3.14467 65.0562 3.09199 65.0583 3.03884 65.0583C1.91282 65.0583 1 64.1454 1 63.0194C1 61.895 1.9103 60.9831 3.03417 60.9806L3.84648 56.1067C3.37065 55.8952 3.03884 55.4184 3.03884 54.8641C3.03884 54.1134 3.64738 53.5049 4.39806 53.5049C4.48302 53.5049 4.56615 53.5126 4.64679 53.5276L7.41742 47.5905C6.42322 46.9976 5.75728 45.9115 5.75728 44.6699C5.75728 43.0174 6.93689 41.6404 8.5 41.335V36C8.5 33.7909 10.2909 32 12.5 32C14.1569 32 15.5 30.6569 15.5 29V25H12.5C10.5669 25 9 23.433 9 21.5V6.5C9 4.56702 10.5669 3 12.5 3H19.5C21.4331 3 23 4.56702 23 6.5V13.5H31.7C34.1853 13.5 36.2 15.5147 36.2 18V27.0426C37.8066 27.2991 39.0374 28.6816 39.058 30.3555L50.8024 33.7809C51.0395 33.383 51.4741 33.1165 51.9709 33.1165C52.7216 33.1165 53.3301 33.725 53.3301 34.4757C53.3301 34.7794 53.2305 35.0598 53.0622 35.2861L57.6285 40.9395C57.9536 40.7202 58.3453 40.5922 58.767 40.5922C59.6727 40.5922 60.4406 41.1829 60.7063 42H67.5C69.433 42 71 40.433 71 38.5V31H59.9583C59.4294 31 59 30.5726 59 30.0455C59 29.6922 59.1929 29.3836 59.4791 29.2186ZM79 51.7H81.5C83.433 51.7 85 50.133 85 48.2V31H79V51.7ZM78 51.7H67.5272C67.3427 51.1682 66.8373 50.7864 66.2427 50.7864C66.042 50.7864 65.8514 50.8299 65.68 50.908L60.1811 44.0998C60.4821 43.8099 60.6942 43.4283 60.7725 43H67.5C69.9853 43 72 40.9853 72 38.5V31H78V51.7ZM67.4841 52.7H78V59C78 60.933 76.433 62.5 74.5 62.5H70.9605C70.73 60.9971 69.5149 59.8186 67.9944 59.6438L66.8193 53.3768C67.1141 53.2386 67.351 52.9976 67.4841 52.7ZM74.2437 89H85V91C85 92.933 83.433 94.5 81.5 94.5H39.0785L53.5521 89.5893C53.7949 89.9595 54.2136 90.2039 54.6893 90.2039C55.44 90.2039 56.0485 89.5953 56.0485 88.8447C56.0485 88.5102 55.9277 88.2039 55.7273 87.9671L57.729 85.1413C59.283 84.5544 60.4491 83.1773 60.737 81.5H73V88.2498C73.2173 88.694 73.6943 89 74.2437 89ZM11.3059 42.0388C10.8036 41.6278 10.1815 41.3578 9.5 41.2891V36C9.5 34.3431 10.8431 33 12.5 33C14.7091 33 16.5 31.2091 16.5 29V25H19.5C21.4331 25 23 23.433 23 21.5V14.5H31.7C33.633 14.5 35.2 16.067 35.2 18V27.0309C33.5547 27.2537 32.2833 28.654 32.2624 30.3555L20.518 33.7809C20.2809 33.3831 19.8463 33.1165 19.3495 33.1165C18.5988 33.1165 17.9903 33.725 17.9903 34.4757C17.9903 34.7278 18.0589 34.9638 18.1785 35.1662L11.3059 42.0388ZM5.26255 53.8152C5.32261 53.8647 5.37833 53.9193 5.42908 53.9783L9.59161 51.9312L9.15534 48.068C8.76208 48.068 8.38442 48.0012 8.0331 47.8783L5.26255 53.8152ZM5.75728 54.8641C5.75728 55.1793 5.64997 55.4695 5.46988 55.7001L9.15901 60.4959C9.53851 60.1568 9.96058 59.8643 10.4162 59.6275L9.6687 52.6506L5.72924 54.5881C5.74762 54.6772 5.75728 54.7695 5.75728 54.8641ZM4.93139 56.1147C4.80228 56.1698 4.66288 56.2055 4.51689 56.2182L3.70463 61.0918C4.45196 61.3498 5.00238 62.0303 5.07054 62.8477L7.45507 63.0464C7.72331 62.276 8.1413 61.5756 8.6742 60.9803L4.93139 56.1147ZM55.173 87.574L56.7124 85.4007C56.4955 85.4309 56.2738 85.4466 56.0485 85.4466C55.395 85.4466 54.7722 85.3148 54.2054 85.0764L54.7374 87.4863C54.8904 87.4916 55.0369 87.5222 55.173 87.574ZM54.0737 87.6325L53.4158 84.6523C52.8521 84.277 52.373 83.7848 52.0133 83.2101L45.8175 86.4902C45.836 86.568 45.8478 86.6484 45.8523 86.7307L53.4652 88.2533C53.5946 87.9857 53.8092 87.7671 54.0737 87.6325ZM44.4951 88.165C44.2335 88.165 43.9892 88.0911 43.7819 87.9631L43.109 88.6101L51.4068 88.5347L45.7193 87.3972C45.4994 87.8516 45.0339 88.165 44.4951 88.165ZM43.1359 86.8058C43.1359 86.2344 43.4885 85.7454 43.988 85.5444L42.2896 72.5239C41.639 72.4443 41.1305 71.9051 41.0987 71.2408L38.9461 70.7955L37.7815 74.726C40.8424 75.3872 43.1359 78.1102 43.1359 81.3689C43.1359 85.1223 40.0932 88.1651 36.3398 88.1651C36.2259 88.1651 36.1126 88.1622 36 88.1567V88.6747L42.1191 88.6191L43.3108 87.4732C43.1995 87.2761 43.1359 87.0484 43.1359 86.8058ZM45.0665 85.5722C45.2313 85.6486 45.3783 85.7571 45.4993 85.8897L51.6948 82.6097C51.4354 82.0224 51.2913 81.3727 51.2913 80.6893C51.2913 79.796 51.5375 78.9602 51.9657 78.2461L47.0393 74.7976L45.0665 85.5722ZM64.8835 72.534C64.8835 72.411 64.8998 72.2919 64.9304 72.1786L63.0817 71.1274L59.029 76.9812C59.2114 77.128 59.3828 77.288 59.5416 77.4597L65.0025 73.091C64.926 72.921 64.8835 72.7325 64.8835 72.534ZM65.8167 71.2429C65.9337 71.2043 66.0577 71.1812 66.1862 71.1759L67.2107 66.3952C66.9558 66.366 66.7094 66.3085 66.4748 66.2261L64.4613 69.1345L65.8167 71.2429ZM65.1514 51.3352L59.618 44.4843C59.359 44.6035 59.0708 44.6699 58.767 44.6699C57.641 44.6699 56.7282 43.7571 56.7282 42.6311C56.7282 42.1729 56.8793 41.75 57.1345 41.4095L53.1631 36.4926L57.6406 47.4375C57.7844 47.4053 57.9339 47.3884 58.0874 47.3884C59.2134 47.3884 60.1262 48.3012 60.1262 49.4272C60.1262 49.5338 60.118 49.6384 60.1023 49.7406L65.1015 51.407C65.1174 51.3825 65.134 51.3586 65.1514 51.3352ZM64.8867 52.0518L59.8875 50.3854C59.6419 50.8457 59.2249 51.2008 58.7218 51.3654L59.1597 54.2851L64.8885 52.2632C64.8852 52.2245 64.8835 52.1852 64.8835 52.1456C64.8835 52.1141 64.8846 52.0828 64.8867 52.0518ZM65.1146 52.9041L59.2624 54.9696L59.7749 58.3861L63.0655 60.0315L65.48 53.2709C65.3361 53.1731 65.2119 53.0485 65.1146 52.9041ZM66.1201 53.4994L63.6779 60.3376L64.9054 60.9514C65.4693 60.2173 66.3262 59.72 67.3012 59.6345L66.1513 53.5018L66.1402 53.501L66.1201 53.4994ZM17.217 43.4934L19.1859 42.0676C18.8534 42.8692 18.6699 43.7481 18.6699 44.6699C18.6699 45.5728 18.846 46.4345 19.1656 47.2227L16.6127 48.4782L16.3842 45.2792C16.9227 45.0984 17.3107 44.5897 17.3107 43.9903C17.3107 43.8149 17.2775 43.6473 17.217 43.4934ZM15.7063 45.3275L15.9545 48.8019L10.2409 51.6119L9.85351 47.9962C11.3948 47.6743 12.5526 46.3082 12.5534 44.6716L14.6753 44.4594C14.8391 44.9047 15.2293 45.2406 15.7063 45.3275ZM16.0741 42.6365C15.3939 42.6365 14.7077 43.1308 14.6079 43.7831L12.4864 43.9953C12.3752 43.4431 12.1301 42.9393 11.7864 42.5194L18.5213 35.7845L16.0741 42.6365ZM16.7857 42.9286L19.2269 35.8295C19.3491 35.8295 19.5902 35.8188 19.7029 35.7886L21.577 39.0958C20.9658 39.523 20.4281 40.0483 19.9867 40.6487L16.7857 42.9286ZM20.294 35.4532L22.1534 38.7344C22.5341 38.5215 22.9374 38.3441 23.3588 38.2068L25.1908 36.8802L20.4796 35.2312C20.4257 35.3117 20.3634 35.3861 20.294 35.4532ZM20.7081 34.4334L32.3237 31.0455C32.3607 31.2369 32.4136 31.4225 32.4812 31.6009L30.9951 32.6771C30.7758 32.5256 30.5099 32.4369 30.2233 32.4369C29.4726 32.4369 28.8641 33.0454 28.8641 33.7961C28.8641 33.9296 28.8833 34.0585 28.9191 34.1803L25.8612 36.3947L20.704 34.5898C20.7071 34.5522 20.7081 34.4718 20.7081 34.4334ZM51.6128 35.7873C51.7269 35.8184 51.8469 35.835 51.9709 35.835C52.0332 35.835 52.0946 35.8307 52.1548 35.8226L57.0116 47.6949C56.9481 47.7344 56.887 47.7773 56.8284 47.8234L52.3877 43.7864C51.8621 42.2748 50.5953 41.11 49.0225 40.7271L48.8695 40.588L51.6128 35.7873ZM50.7214 35.0117C50.7926 35.1773 50.8956 35.3259 51.0229 35.4498L48.3544 40.1197L44.8522 36.9359C45.0513 36.6263 45.1688 36.2592 45.1745 35.8651L50.7214 35.0117ZM7.04896 70.7493C6.65074 70.5855 6.21456 70.4951 5.75728 70.4951C5.59073 70.4951 5.42698 70.5071 5.26685 70.5303L3.85623 64.8878C4.35056 64.6712 4.74247 64.2642 4.93917 63.7596L7.17323 64.2218C7.13583 64.4953 7.1165 64.7745 7.1165 65.0583C7.1165 66.3604 7.52339 67.5674 8.21694 68.5593L7.04896 70.7493ZM9.12989 74.3112C9.14669 74.1742 9.15534 74.0347 9.15534 73.8932C9.15534 72.7165 8.55719 71.6794 7.64836 71.0695L8.67751 69.1399C9.73502 70.3194 11.2439 71.0858 12.9325 71.1675L14.131 75.4478L9.12989 74.3112ZM8.75954 75.4863C8.84636 75.323 8.92024 75.1518 8.97984 74.974L14.3394 76.1921L14.8969 78.183C14.5091 78.3464 14.1672 78.597 13.8958 78.9104L8.75954 75.4863ZM8.06663 76.386C8.17912 76.2817 8.28453 76.1699 8.38208 76.0514L13.5183 79.4756C13.3357 79.8409 13.233 80.2531 13.233 80.6893C13.233 82.1907 14.4501 83.4078 15.9515 83.4078C15.9818 83.4078 16.012 83.4073 16.0421 83.4063L16.606 86.9309C16.4593 86.9849 16.3205 87.0553 16.1919 87.1399L8.06663 76.386ZM38.7523 31.8092C38.8624 31.5684 38.9451 31.3125 38.9966 31.0455L50.4047 34.3729L45.0717 35.1933C44.8029 34.3817 44.0378 33.7961 43.1359 33.7961C42.6226 33.7961 42.1536 33.9858 41.7952 34.2989L38.7523 31.8092ZM38.2665 32.5785C38.3143 32.5214 38.3603 32.4628 38.4043 32.4026L41.3646 34.8247C41.1944 35.1225 41.0971 35.4674 41.0971 35.835C41.0971 36.0297 41.1244 36.218 41.1754 36.3963L38.2665 32.5785ZM32.7894 32.2169L31.4416 33.1928C31.5318 33.3746 31.5825 33.5794 31.5825 33.7961C31.5825 34.5468 30.974 35.1553 30.2233 35.1553C29.852 35.1553 29.5155 35.0065 29.2702 34.7652L26.6423 36.6682L29.6151 37.7086L33.1511 32.6897C33.0173 32.5433 32.8962 32.3851 32.7894 32.2169ZM33.661 33.1461C34.1359 33.4922 34.7039 33.7181 35.3204 33.7793V39.7055L30.282 37.942L33.661 33.1461ZM36 33.7793C36.668 33.713 37.2792 33.4532 37.7765 33.0568L44.5579 41.9573C44.3231 42.1882 44.1121 42.4433 43.9291 42.7185L36 39.9434V33.7793ZM15.9515 77.9709C16.7183 77.9709 17.411 78.2884 17.9053 78.7992L19.7437 77.4204L15.0931 76.3634L15.5514 78.0001C15.682 77.9809 15.8155 77.9709 15.9515 77.9709ZM18.6699 80.6893C18.6699 81.1739 18.5431 81.6289 18.3209 82.0229L27.3986 88.7529L30.1417 88.728L21.7384 77.8737L20.613 77.6179L18.3134 79.3426C18.5403 79.7396 18.6699 80.1993 18.6699 80.6893ZM17.9157 82.5686C17.5903 82.9086 17.1774 83.1643 16.7133 83.2996L17.2743 86.8061C18.3941 86.8061 19.3395 87.7086 19.3494 88.8261L26.2712 88.7632L17.9157 82.5686ZM33.7327 94.2949L33.7311 94.2997L19.3491 89.5057L27.1769 89.4346L33.7327 94.2949ZM35.3204 92.9505C35.1462 92.9797 34.9795 93.031 34.8233 93.1015L32.7512 89.3839L35.3204 89.3605V92.9505ZM37.0625 93.4812C36.775 93.2086 36.408 93.019 36 92.9505V89.3544L41.4055 89.3052L37.0625 93.4812ZM37.5856 94.2889C37.5542 94.1991 37.5168 94.1122 37.4737 94.0286L42.3954 89.2962L52.5735 89.2037L37.5856 94.2889ZM64.5461 61.5316C64.3269 61.9809 64.2039 62.4858 64.2039 63.0194C64.2039 64.2558 64.8642 65.338 65.8515 65.9325L64.0634 68.5154L61.938 65.2093L63.4476 60.9823L64.5461 61.5316ZM64.5705 74.3069L60.7135 79.752C60.5849 79.1084 60.3264 78.5116 59.9665 77.9901L64.5705 74.3069ZM56.0485 75.932C56.4907 75.932 56.9187 75.9924 57.3249 76.1052L59.7744 69.2468L54.2363 66.0977C53.3857 67.3772 52.113 68.3519 50.617 68.8231L52.5299 77.4875C53.4001 76.5319 54.6543 75.932 56.0485 75.932ZM57.9649 76.3338C58.1392 76.4106 58.308 76.4975 58.4706 76.5939L62.4886 70.7901L60.3742 69.5878L57.9649 76.3338ZM28.8599 38.7805C27.8612 38.2038 26.7022 37.8738 25.466 37.8738C25.2927 37.8738 25.1209 37.8803 24.9509 37.893L25.972 37.1536L29.2081 38.2862L28.8599 38.7805ZM29.4311 39.1497L29.875 38.5196L35.3204 40.4255V44.0063L32.2389 44.1041C32.0708 42.0644 31.002 40.2801 29.4311 39.1497ZM32.2612 44.7833L35.3204 44.6862V52.1884C34.7342 52.3393 34.301 52.8715 34.301 53.5049C34.301 54.2555 34.9095 54.8641 35.6602 54.8641C36.1146 54.8641 36.5169 54.6411 36.7637 54.2986L42.468 56.5169L39.6023 66.1887L29.2319 50.3281C31.0294 49.1294 32.2233 47.097 32.2612 44.7833ZM36 52.1885C36.5863 52.3394 37.05 52.8 37.0101 53.6652L42.6617 55.863L44.7253 48.8986C43.7499 48.0275 43.1359 46.7602 43.1359 45.3495C43.1359 45.0368 43.1661 44.7312 43.2237 44.4353L36 44.6647V52.1885ZM28.6478 50.6767L39.2717 66.9251L34.5456 69.191L24.2257 67.0559L24.1869 65.7367C25.6512 65.6943 26.8252 64.494 26.8252 63.0194C26.8252 61.5859 25.7157 60.4116 24.3086 60.3083L24.9649 51.4478C25.1304 51.4599 25.2975 51.466 25.466 51.466C26.6156 51.466 27.6985 51.1806 28.6478 50.6767ZM24.2896 51.3646L23.6245 60.3436C22.4211 60.5591 21.4923 61.5664 21.3965 62.8072L18.9721 62.9383C18.2047 60.8614 16.3421 59.3152 14.0851 59.0006L15.9846 55.4391C16.1877 55.5069 16.4051 55.5437 16.6311 55.5437C17.7571 55.5437 18.6699 54.6309 18.6699 53.5049C18.6699 52.4449 17.861 51.5738 16.8268 51.4753L16.665 49.2098L19.4525 47.8389C20.4163 49.6642 22.1869 50.9976 24.2896 51.3646ZM36 43.9847V40.6634L43.5895 43.3197C43.5235 43.4593 43.4641 43.6027 43.4117 43.7494L36 43.9847ZM45.3031 49.3406L43.2973 56.1102L44.7921 56.6915C45.873 55.9666 47.1735 55.5437 48.5728 55.5437C50.3642 55.5437 51.9937 56.2368 53.2078 57.3695L53.5584 56.9776C53.4142 56.7618 53.3301 56.5024 53.3301 56.2233C53.3301 55.4726 53.9386 54.8641 54.6893 54.8641C55.1591 54.8641 55.5732 55.1024 55.8174 55.4648L58.5071 54.5155L58.0496 51.4657C56.941 51.4455 56.0485 50.5406 56.0485 49.4272C56.0485 49.2371 56.0746 49.053 56.1233 48.8784L52.3222 47.0897C51.6275 48.8563 49.9064 50.1068 47.8932 50.1068C46.9379 50.1068 46.0484 49.8252 45.3031 49.3406ZM54.6893 57.5825C55.0984 57.5825 55.4653 57.4018 55.7145 57.1158L59.1551 58.8361L59.5949 61.768C59.3648 61.8658 59.1671 62.0253 59.0227 62.2256L55.1772 60.7302C54.9145 59.6487 54.3931 58.6684 53.6822 57.8585L54.0648 57.4309C54.2518 57.5278 54.4642 57.5825 54.6893 57.5825ZM59.0319 58.0146L56.0187 56.508C56.0382 56.4162 56.0485 56.321 56.0485 56.2233C56.0485 56.1837 56.0468 56.1444 56.0435 56.1057L58.6097 55.2L59.0319 58.0146ZM52.5262 46.4346L56.1837 48.1557L52.632 44.9269C52.6442 45.0661 52.6505 45.2071 52.6505 45.3495C52.6505 45.7228 52.6075 46.086 52.5262 46.4346ZM47.8639 40.5923L44.395 37.4387C44.0483 37.7112 43.6111 37.8738 43.1359 37.8738C42.7468 37.8738 42.3832 37.7648 42.0739 37.5757L45.0759 41.5158C45.8572 40.9406 46.8208 40.5986 47.8639 40.5923ZM43.1036 56.7641L40.2289 66.4662L42.4932 65.3805C42.0347 64.4656 41.7767 63.4329 41.7767 62.3398C41.7767 60.2722 42.7001 58.4202 44.1569 57.1737L43.1036 56.7641ZM61.4854 63.0194C61.4854 63.3759 61.3482 63.7003 61.1237 63.9427L61.4741 64.4876L62.8353 60.6762L59.8981 59.2076L60.2671 61.6674C60.9516 61.7379 61.4854 62.3163 61.4854 63.0194ZM61.1855 65.2955L60.5523 64.3105C60.4183 64.3547 60.275 64.3786 60.1262 64.3786C59.4785 64.3786 58.9367 63.9256 58.8002 63.3192L55.3133 63.2135C55.2078 64.0351 54.9557 64.8108 54.5839 65.5135L60.0065 68.5969L61.1855 65.2955ZM55.3662 62.5352C55.368 62.4703 55.3689 62.4052 55.3689 62.3398C55.3689 62.0605 55.3521 61.7851 55.3193 61.5146L58.1614 62.6199L55.3662 62.5352ZM48.0792 69.1183C48.2422 69.13 48.4068 69.1359 48.5728 69.1359C49.0478 69.1359 49.5114 69.0872 49.9589 68.9945L51.7913 77.2944L47.174 74.0623L48.0792 69.1183ZM42.8286 65.9734C43.8347 67.5606 45.4805 68.7022 47.4034 69.0357L46.5615 73.6336L43.7297 71.6513C43.7852 71.503 43.8155 71.3424 43.8155 71.1748C43.8155 70.4241 43.207 69.8155 42.4563 69.8155C42.3038 69.8155 42.1572 69.8406 42.0203 69.887L40.2651 67.2025L42.8286 65.9734ZM41.4517 70.2592L39.8368 67.7894L39.1399 70.1416L41.2361 70.5753C41.293 70.4597 41.3658 70.3534 41.4517 70.2592ZM42.9636 72.4362L44.5516 84.611L46.4269 74.3689L43.3397 72.2078C43.2284 72.3031 43.1016 72.3806 42.9636 72.4362ZM61.6494 66.0172L63.6444 69.1205L62.8769 70.2291L60.6063 68.938L61.6494 66.0172ZM63.47 70.5664L64.0424 69.7396L65.21 71.5558L63.47 70.5664ZM38.2783 70.6573L37.1055 74.6155C36.8541 74.5873 36.5987 74.5728 36.3398 74.5728C33.4032 74.5728 30.9017 76.4353 29.952 79.0435L26.5578 78.2721L25.0444 75.5569C25.3041 75.3093 25.466 74.96 25.466 74.5728C25.466 74.4829 25.4573 74.3951 25.4407 74.3101L34.6326 69.903L38.2783 70.6573ZM25.6668 78.0696L24.4509 75.8881C24.341 75.9168 24.2257 75.932 24.1068 75.932C23.7856 75.932 23.4904 75.8206 23.2578 75.6343L21.7435 76.7701L22.1267 77.265L25.6668 78.0696ZM21.3274 76.2326L22.8498 75.0908C22.7839 74.9312 22.7476 74.7562 22.7476 74.5728C22.7476 73.9534 23.1619 73.4308 23.7285 73.2669L23.5622 67.6126L19.128 66.6952C18.7312 68.1273 17.8265 69.3484 16.62 70.1522L21.3274 76.2326ZM24.2462 67.7541L24.4078 73.247C24.7015 73.3134 24.9591 73.4749 25.1466 73.6974L33.5345 69.6758L24.2462 67.7541ZM27.0026 79.0701L29.7514 79.6949C29.6158 80.2304 29.5437 80.7912 29.5437 81.3689C29.5437 84.7759 32.0506 87.5973 35.3204 88.0891V88.6809L32.3743 88.7077L27.0026 79.0701ZM31.6002 88.7147L26.1116 78.8676L22.7814 78.1108L30.9952 88.7202L31.6002 88.7147ZM31.5177 89.3951L31.9771 89.3909L33.1664 91.5246L31.5177 89.3951ZM28.3042 89.4243L30.6642 89.4029L33.8828 93.5602L28.3042 89.4243ZM20.4568 76.8855L14.8847 75.6191L13.6366 71.1617C14.4945 71.1058 15.3041 70.873 16.0294 70.4995L20.7836 76.6404L20.4568 76.8855ZM10.318 52.3313L11.0685 59.3358C11.7414 59.0811 12.4709 58.9417 13.233 58.9417C13.2707 58.9417 13.3083 58.9421 13.3457 58.9428L15.3852 55.1189C14.9028 54.746 14.5922 54.1617 14.5922 53.5049C14.5922 52.5449 15.2556 51.74 16.1489 51.5234L16.0068 49.5335L10.318 52.3313ZM19.1765 63.6078L21.4283 63.4861C21.6154 64.5681 22.4422 65.4309 23.5051 65.671L23.5416 66.9143L19.2726 66.0311C19.3232 65.7143 19.3495 65.3893 19.3495 65.0583C19.3495 64.5585 19.2896 64.0728 19.1765 63.6078ZM39.1424 67.7408L38.472 70.0034L35.6438 69.4182L39.1424 67.7408ZM25.2891 46.4628C25.2891 46.7027 25.0685 46.8838 24.844 46.7995C24.6641 46.732 24.4928 46.6469 24.3323 46.5462C23.956 46.8194 23.4929 46.9806 22.9922 46.9806C21.7312 46.9806 20.7087 45.9582 20.7087 44.6971C20.7087 43.4359 21.7312 42.4136 22.9922 42.4136C23.1732 42.4136 23.3494 42.4346 23.5183 42.4745C24.0357 41.7467 24.8857 41.2718 25.8466 41.2718C27.2294 41.2718 28.3825 42.2551 28.6448 43.5605C29.5279 43.629 30.2233 44.3673 30.2233 45.268C30.2233 46.2138 29.4566 46.9806 28.5107 46.9806C28.071 46.9806 27.67 46.8149 27.3667 46.5425C27.0907 46.7165 26.783 46.8445 26.4542 46.9158C26.2385 46.9625 26.0503 46.7858 26.0503 46.5651V45.8388C26.0503 45.6286 26.2207 45.4583 26.4309 45.4583H26.988C27.1346 45.4583 27.226 45.2997 27.1528 45.1728L25.8345 42.8893C25.7613 42.7624 25.5781 42.7624 25.5049 42.8893L24.1866 45.1728C24.1134 45.2997 24.2048 45.4583 24.3514 45.4583H24.9085C25.1187 45.4583 25.2891 45.6286 25.2891 45.8388V46.4628ZM16.775 65.3675C17.0131 65.2301 17.0131 64.8864 16.775 64.749L11.7299 61.8362C11.4918 61.6987 11.1942 61.8705 11.1942 62.1455V67.971C11.1942 68.246 11.4918 68.4178 11.7299 68.2803L16.775 65.3675ZM56.0483 79.5567C56.0483 79.5567 56.5245 78.6505 57.2382 78.6505C57.9519 78.6505 58.4272 79.1036 58.4272 79.7832C58.4272 81.3689 56.0481 82.7282 56.0481 82.7282C56.0481 82.7282 53.6699 81.3689 53.6699 79.7832C53.6699 79.1036 54.1452 78.6505 54.8589 78.6505C55.5725 78.6505 56.0483 79.5567 56.0483 79.5567ZM34.301 30.0583C34.301 29.3076 34.9096 28.699 35.6602 28.699C36.4108 28.699 37.0194 29.3076 37.0194 30.0583V30.9078C37.0194 31.0016 36.9434 31.0777 36.8495 31.0777H36.2489C36.3068 31.1776 36.3398 31.2937 36.3398 31.4175C36.3398 31.7928 36.0355 32.0971 35.6602 32.0971C35.2849 32.0971 34.9806 31.7928 34.9806 31.4175C34.9806 31.2937 35.0136 31.1776 35.0715 31.0777H34.4709C34.377 31.0777 34.301 31.0016 34.301 30.9078V30.0583ZM36.8674 76.5592C37.0246 76.5592 37.152 76.6866 37.152 76.8437V77.6973C37.152 77.8545 37.0246 77.9818 36.8674 77.9818C36.7103 77.9818 36.5829 77.8545 36.5829 77.6973V76.8437C36.5829 76.6866 36.7103 76.5592 36.8674 76.5592ZM36.8675 78.1525C37.3389 78.1525 37.721 78.5347 37.721 79.0061V84.9402C37.721 85.2488 37.4709 85.499 37.1623 85.499H33.8974C33.6363 85.499 33.4087 85.3213 33.3454 85.0679L32.4918 81.6537C32.402 81.2945 32.6736 80.9466 33.0438 80.9466L35.4451 80.9454C35.7593 80.9453 36.0139 80.6905 36.0139 80.3764V79.0061C36.0139 78.5347 36.396 78.1525 36.8675 78.1525ZM35.6288 77.2228C35.5177 77.1117 35.3375 77.1117 35.2264 77.2228C35.1153 77.3339 35.1153 77.5141 35.2264 77.6252L35.83 78.2287C35.9411 78.3399 36.1212 78.3399 36.2323 78.2287C36.3434 78.1176 36.3434 77.9375 36.2323 77.8264L35.6288 77.2228ZM38.5085 77.2228C38.3974 77.1117 38.2172 77.1117 38.1061 77.2228L37.5025 77.8264C37.3914 77.9375 37.3914 78.1176 37.5025 78.2287C37.6136 78.3399 37.7938 78.3399 37.9049 78.2287L38.5085 77.6252C38.6196 77.5141 38.6196 77.3339 38.5085 77.2228ZM38.6204 81.0291C38.3118 81.0291 38.0616 81.2793 38.0616 81.5878V84.9402C38.0616 85.2488 38.3118 85.499 38.6204 85.499H39.7378V81.0291H38.6204ZM45.7693 63.4775C46.0821 63.8553 46.5233 63.7851 46.6385 63.4532C46.9804 62.4681 47.5281 62.0741 48.1926 61.9672C47.8032 61.8199 47.5273 61.4531 47.5273 61.024C47.5273 60.4649 47.9954 60.0118 48.5728 60.0118C49.1503 60.0118 49.6184 60.4649 49.6184 61.024C49.6184 61.4449 49.353 61.8058 48.9754 61.9584C49.6687 62.0567 50.2192 62.4775 50.5547 63.4808C50.6616 63.8006 51.0646 63.8558 51.3758 63.4783C51.7832 62.9299 52.0232 62.2571 52.0232 61.5301C52.0232 59.6853 50.4784 58.1898 48.5728 58.1898C46.6672 58.1898 45.1225 59.6853 45.1225 61.5301C45.1225 62.2568 45.3622 62.9293 45.7693 63.4775ZM48.5728 57.5825C50.8249 57.5825 52.6505 59.3499 52.6505 61.5301C52.6505 61.7642 52.6294 61.9937 52.589 62.2167C52.2198 64.3892 49.0956 67.0971 48.5728 67.0971C48.05 67.0971 44.8404 64.2824 44.5357 62.0893C44.509 61.9066 44.4951 61.7199 44.4951 61.5301C44.4951 59.3499 46.3208 57.5825 48.5728 57.5825ZM45.1748 45.3495C45.1748 45.7249 45.479 46.0291 45.8544 46.0291C46.2297 46.0291 46.534 45.7249 46.534 45.3495C46.534 44.9742 46.2297 44.6699 45.8544 44.6699C45.479 44.6699 45.1748 44.9742 45.1748 45.3495ZM47.2136 45.3495C47.2136 45.7249 47.5179 46.0291 47.8932 46.0291C48.2685 46.0291 48.5728 45.7249 48.5728 45.3495C48.5728 44.9742 48.2685 44.6699 47.8932 44.6699C47.5179 44.6699 47.2136 44.9742 47.2136 45.3495ZM49.932 46.0291C49.5567 46.0291 49.2524 45.7249 49.2524 45.3495C49.2524 44.9742 49.5567 44.6699 49.932 44.6699C50.3074 44.6699 50.6117 44.9742 50.6117 45.3495C50.6117 45.7249 50.3074 46.0291 49.932 46.0291ZM5.96108 71.802C5.89693 71.6046 5.61763 71.6046 5.55348 71.802L5.19506 72.9051C5.16638 72.9934 5.0841 73.0532 4.99126 73.0532H3.83139C3.62381 73.0532 3.5375 73.3188 3.70544 73.4408L4.64379 74.1226C4.7189 74.1771 4.75033 74.2739 4.72164 74.3621L4.36322 75.4653C4.29907 75.6627 4.52503 75.8268 4.69297 75.7048L5.63133 75.0231C5.70643 74.9685 5.80813 74.9685 5.88324 75.0231L6.82159 75.7048C6.98953 75.8268 7.21549 75.6627 7.15135 75.4653L6.79293 74.3621C6.76424 74.2739 6.79566 74.1771 6.87077 74.1226L7.80913 73.4408C7.97707 73.3188 7.89076 73.0532 7.68317 73.0532H6.5233C6.43046 73.0532 6.34819 72.9934 6.3195 72.9051L5.96108 71.802ZM69.8272 63.0626C69.9184 62.9993 69.9184 62.8644 69.8272 62.8011L67.8801 61.4522C67.7746 61.3791 67.6305 61.4546 67.6305 61.5829V62.4908C66.8546 62.6768 65.5631 63.136 65.5631 64.204C65.6654 63.9484 66.2213 63.3278 67.6305 63.3983V64.2808C67.6305 64.4091 67.7746 64.4846 67.8801 64.4116L69.8272 63.0626ZM11.083 44.5798C9.99722 43.494 8.23689 43.494 7.15116 44.5797L6.71429 44.1429C8.04129 42.8159 10.1928 42.8159 11.5198 44.1429L11.083 44.5798ZM7.8791 45.3079C8.56271 44.6243 9.67107 44.6243 10.3547 45.3079L10.7916 44.8711C9.86665 43.9462 8.36711 43.9461 7.44223 44.871L7.8791 45.3079ZM8.60749 46.036C8.88898 45.7545 9.34536 45.7545 9.62685 46.036L10.0637 45.5991C9.54095 45.0763 8.69338 45.0763 8.17062 45.5991L8.60749 46.036ZM21.3301 21.3912C20.5771 21.313 20.0688 20.7239 19.9067 20.239C19.2456 18.2611 18.1606 17.4314 16.7935 17.2377C17.5376 16.9368 18.061 16.2252 18.061 15.3954C18.061 14.2935 17.1382 13.4 16 13.4C14.8618 13.4 13.939 14.2935 13.939 15.3954C13.939 16.2416 14.4829 16.9646 15.2505 17.2549C13.9404 17.4657 12.8608 18.2424 12.187 20.1846C12.0127 20.6863 11.4331 21.3086 10.6699 21.3909V6.60229H21.3301V21.3912ZM14.6758 5.38757C14.6758 5.47546 14.7319 5.58264 14.8188 5.66504C14.8984 5.74036 15.0029 5.7948 15.1128 5.7948H16.8872C17.1191 5.7948 17.3242 5.62158 17.3242 5.38757C17.3242 5.15356 17.1191 4.98022 16.8872 4.98022H15.1128C14.8809 4.98022 14.6758 5.15356 14.6758 5.38757ZM19.5493 4.58374C20.4897 4.58374 21.2466 5.23926 21.3237 6.05688H10.6763C10.7534 5.23926 11.5103 4.58374 12.4507 4.58374H19.5493ZM12.4507 23.4163C11.5103 23.4163 10.7534 22.7607 10.6763 21.9431H21.3237C21.2466 22.7607 20.4897 23.4163 19.5493 23.4163H12.4507ZM96.5073 74.4097H74.3682V87.5903H79.6792C80.5146 87.5005 81.1499 86.7983 81.3403 86.2327C82.0752 84.0477 83.2529 83.174 84.6826 82.9366C83.8447 82.6101 83.2515 81.7968 83.2515 80.8448C83.2515 79.6051 84.2583 78.6 85.5 78.6C86.7417 78.6 87.7485 79.6051 87.7485 80.8448C87.7485 81.7783 87.1777 82.5787 86.3657 82.9174C87.8569 83.1353 89.041 84.0687 89.7622 86.2938C89.939 86.8397 90.4941 87.5031 91.3169 87.5903H96.5073V74.4097Z" fill="black"/><text x="0" y="115" fill="#000000" font-size="5px" font-weight="bold" font-family="'Helvetica Neue', Helvetica, Arial-Unicode, Arial, Sans-serif">Created by 상미 한</text><text x="0" y="120" fill="#000000" font-size="5px" font-weight="bold" font-family="'Helvetica Neue', Helvetica, Arial-Unicode, Arial, Sans-serif">from the Noun Project</text></svg>