<svg xmlns="http://www.w3.org/2000/svg" xmlns:xlink="http://www.w3.org/1999/xlink" version="1.1" x="0px" y="0px" viewBox="0 0 100 125" enable-background="new 0 0 100 100" xml:space="preserve"><g><path d="M6.5,6.334v87.332h87V6.334H6.5z M91,8.834V14.5H9V8.834H91z M9,91.166V17h82v74.166H9z"/><rect x="18.265" y="10.5" width="6.604" height="2.5"/><rect x="78.5" y="10.5" width="3.235" height="2.5"/><rect x="74.5" y="10.5" width="3.235" height="2.5"/><rect x="70.5" y="10.5" width="3.235" height="2.5"/><polygon points="23.065,32.639 17.88,26.651 23.065,20.664 21.176,19.027 14.573,26.651 21.176,34.275  "/><polygon points="29.673,32.639 31.563,34.275 38.167,26.651 31.563,19.027 29.673,20.664 34.86,26.651  "/><polygon points="49.844,43.351 44.659,37.363 49.844,31.375 47.955,29.738 41.352,37.363 47.955,44.987  "/><polygon points="56.453,43.351 58.342,44.987 64.946,37.363 58.343,29.738 56.452,31.375 61.64,37.363  "/><polygon points="49.845,67.469 44.659,61.482 49.845,55.494 47.955,53.857 41.352,61.482 47.955,69.105  "/><polygon points="68.146,55.494 73.334,61.482 68.147,67.469 70.036,69.105 76.641,61.482 70.037,53.857  "/><rect x="60.219" y="53.886" transform="matrix(-0.8958 -0.4444 0.4444 -0.8958 89.2124 143.877)" width="2.501" height="15.194"/><rect x="22.395" y="25.375" width="7.569" height="2.5"/><rect x="49.309" y="36.112" width="7.569" height="2.5"/><rect x="49.309" y="60.232" width="7.569" height="2.5"/><polygon points="23.295,72.912 21.405,71.275 14.802,78.9 21.405,86.523 23.295,84.887 18.109,78.9  "/><polygon points="41.597,72.912 46.784,78.9 41.597,84.887 43.487,86.523 50.091,78.9 43.487,71.275  "/><rect x="33.67" y="71.304" transform="matrix(-0.8958 -0.4446 0.4446 -0.8958 31.123 165.0992)" width="2.5" height="15.194"/><rect x="22.759" y="77.65" width="7.569" height="2.5"/><rect x="16.28" y="48.75" width="4.44" height="2.5"/><rect x="23.28" y="48.75" width="4.44" height="2.5"/><rect x="30.28" y="48.75" width="4.44" height="2.5"/><rect x="37.28" y="48.75" width="4.44" height="2.5"/><rect x="44.28" y="48.75" width="4.44" height="2.5"/><rect x="51.279" y="48.75" width="4.441" height="2.5"/><rect x="58.279" y="48.75" width="4.441" height="2.5"/><rect x="65.279" y="48.75" width="4.441" height="2.5"/><rect x="72.279" y="48.75" width="4.441" height="2.5"/><rect x="79.279" y="48.75" width="4.441" height="2.5"/></g><text x="0" y="115" fill="#000000" font-size="5px" font-weight="bold" font-family="'Helvetica Neue', Helvetica, Arial-Unicode, Arial, Sans-serif">Created by Creative Mania</text><text x="0" y="120" fill="#000000" font-size="5px" font-weight="bold" font-family="'Helvetica Neue', Helvetica, Arial-Unicode, Arial, Sans-serif">from the Noun Project</text></svg>