<svg xmlns="http://www.w3.org/2000/svg" data-name="Layer 3" viewBox="0 0 64 80" x="0px" y="0px"><title>TALK-consultation-carpenter-carpentry-wood</title><path d="M11,52v4h8V52h-.59l-2.7,2.71a1,1,0,0,1-1.42,0L11.59,52Z"/><path d="M16.45,35.87l.66-1.32a1,1,0,0,1,1.78,0l.66,1.32a3.85,3.85,0,0,0,2.45,2V36A7,7,0,0,0,8,36v2h5A3.85,3.85,0,0,0,16.45,35.87Z"/><path d="M24,40v1.24c0,.26,0,.51,0,.76h0a1,1,0,0,0,0-2Z"/><path d="M17,50.59v-.77a8.54,8.54,0,0,1-1.76.18H15a9.18,9.18,0,0,1-2-.24v.83l2,2Z"/><path d="M8,41a7,7,0,0,0,7,7h.2A6.76,6.76,0,0,0,22,41.24V39.92a5.82,5.82,0,0,1-4-2.73A5.81,5.81,0,0,1,13,40H8Z"/><path d="M25,53v8h2V57A5,5,0,0,0,25,53Z"/><path d="M3,57v4H5V53A5,5,0,0,0,3,57Z"/><path d="M6,40a1,1,0,0,0,0,2h.06A8.26,8.26,0,0,1,6,41Z"/><path d="M21,52v5a1,1,0,0,1-1,1H10a1,1,0,0,1-1-1V52H8a5.47,5.47,0,0,0-1,.1V61H23V52.1a5.47,5.47,0,0,0-1-.1Z"/><path d="M59,41a1,1,0,0,0-1-1v1.24c0,.26,0,.51,0,.76h0A1,1,0,0,0,59,41Z"/><path d="M56,36a7,7,0,0,0-14,0v2h5a3.85,3.85,0,0,0,3.45-2.13l.66-1.32a1,1,0,0,1,1.78,0l.66,1.32a3.85,3.85,0,0,0,2.45,2Z"/><path d="M49,50a9.18,9.18,0,0,1-2-.24v.83l2,2,2-2v-.77a8.54,8.54,0,0,1-1.76.18Z"/><path d="M56,52H52.41l-2.7,2.71a1,1,0,0,1-1.42,0L45.59,52H42a5,5,0,0,0-5,5v4h3V57h2v4H56V57h2v4h3V57A5,5,0,0,0,56,52Z"/><path d="M56,41.24V39.92a5.82,5.82,0,0,1-4-2.73A5.81,5.81,0,0,1,47,40H42v1a7,7,0,0,0,7,7h.2A6.76,6.76,0,0,0,56,41.24Z"/><path d="M39,41a1,1,0,0,0,1,1h.06A8.26,8.26,0,0,1,40,41V40A1,1,0,0,0,39,41Z"/><path d="M39,19a1,1,0,0,1,.71.29L42,21.59V20a1,1,0,0,1,1-1H56a1,1,0,0,0,1-1V4a1,1,0,0,0-1-1H32a1,1,0,0,0-1,1V5h1a3,3,0,0,1,3,3V19ZM49,8h2v2H49Zm0,4h2v2H49Zm-5,0a3,3,0,0,1-1-5.82V5h2V6.18A3,3,0,0,1,47,9H45a1,1,0,1,0-1,1,3,3,0,0,1,1,5.82V17H43V15.82A3,3,0,0,1,41,13h2a1,1,0,1,0,1-1ZM37,8h2v2H37Zm0,4h2v2H37Z"/><circle cx="17" cy="13" r="1"/><circle cx="19" cy="17" r="1"/><path d="M32,7H8A1,1,0,0,0,7,8V22a1,1,0,0,0,1,1H21a1,1,0,0,1,1,1v1.59l2.29-2.3A1,1,0,0,1,25,23h7a1,1,0,0,0,1-1V8A1,1,0,0,0,32,7ZM25,20H19a3,3,0,0,1-2-.78A3,3,0,0,1,15,20a3,3,0,0,1-.78-5.88A3,3,0,0,1,17,10h6a3,3,0,0,1,2.78,4.12A3,3,0,0,1,25,20Z"/><path d="M25,16H21.82a2.87,2.87,0,0,1,0,2H25a1,1,0,0,0,0-2Z"/><circle cx="15" cy="17" r="1"/><path d="M23,14a1,1,0,0,0,0-2H19.82a2.87,2.87,0,0,1,0,2Z"/><text x="0" y="79" fill="#000000" font-size="5px" font-weight="bold" font-family="'Helvetica Neue', Helvetica, Arial-Unicode, Arial, Sans-serif">Created by Start Up Graphic Design</text><text x="0" y="84" fill="#000000" font-size="5px" font-weight="bold" font-family="'Helvetica Neue', Helvetica, Arial-Unicode, Arial, Sans-serif">from the Noun Project</text></svg>